<mxfile host="app.diagrams.net" modified="2023-09-19T11:18:56.681Z" agent="Mozilla/5.0 (Windows NT 10.0; Win64; x64) AppleWebKit/537.36 (KHTML, like Gecko) Chrome/116.0.0.0 Safari/537.36" etag="Zxh3NC23Pn9XzNxkevr3" version="21.7.4" type="device">
  <diagram name="1 oldal" id="pL-K80xvJewHXVkx9QC4">
    <mxGraphModel dx="1434" dy="790" grid="1" gridSize="10" guides="1" tooltips="1" connect="1" arrows="1" fold="1" page="1" pageScale="1" pageWidth="827" pageHeight="1169" math="0" shadow="0">
      <root>
        <mxCell id="0" />
        <mxCell id="1" parent="0" />
        <mxCell id="PvcutR2ZVSyQn7CbKPdg-21" style="edgeStyle=orthogonalEdgeStyle;rounded=0;orthogonalLoop=1;jettySize=auto;html=1;exitX=0.5;exitY=1;exitDx=0;exitDy=0;entryX=0.5;entryY=0;entryDx=0;entryDy=0;" edge="1" parent="1" source="x3SwiINWwGX-mMM16VKN-1" target="PvcutR2ZVSyQn7CbKPdg-1">
          <mxGeometry relative="1" as="geometry" />
        </mxCell>
        <mxCell id="x3SwiINWwGX-mMM16VKN-1" value="start" style="ellipse;whiteSpace=wrap;html=1;" parent="1" vertex="1">
          <mxGeometry x="294" width="120" height="80" as="geometry" />
        </mxCell>
        <mxCell id="x3SwiINWwGX-mMM16VKN-16" value="Okosba END" style="ellipse;whiteSpace=wrap;html=1;" parent="1" vertex="1">
          <mxGeometry y="360" width="120" height="80" as="geometry" />
        </mxCell>
        <mxCell id="PvcutR2ZVSyQn7CbKPdg-20" style="edgeStyle=orthogonalEdgeStyle;rounded=0;orthogonalLoop=1;jettySize=auto;html=1;exitX=0.5;exitY=1;exitDx=0;exitDy=0;entryX=0.5;entryY=0;entryDx=0;entryDy=0;" edge="1" parent="1" source="PvcutR2ZVSyQn7CbKPdg-1" target="PvcutR2ZVSyQn7CbKPdg-11">
          <mxGeometry relative="1" as="geometry" />
        </mxCell>
        <mxCell id="PvcutR2ZVSyQn7CbKPdg-1" value="be : a" style="shape=parallelogram;perimeter=parallelogramPerimeter;whiteSpace=wrap;html=1;fixedSize=1;" vertex="1" parent="1">
          <mxGeometry x="294" y="100" width="120" height="60" as="geometry" />
        </mxCell>
        <mxCell id="PvcutR2ZVSyQn7CbKPdg-22" value="" style="edgeStyle=orthogonalEdgeStyle;rounded=0;orthogonalLoop=1;jettySize=auto;html=1;" edge="1" parent="1" source="PvcutR2ZVSyQn7CbKPdg-6" target="PvcutR2ZVSyQn7CbKPdg-10">
          <mxGeometry relative="1" as="geometry" />
        </mxCell>
        <mxCell id="PvcutR2ZVSyQn7CbKPdg-6" value="a == 1&amp;nbsp;" style="rhombus;whiteSpace=wrap;html=1;" vertex="1" parent="1">
          <mxGeometry x="310" y="360" width="80" height="80" as="geometry" />
        </mxCell>
        <mxCell id="PvcutR2ZVSyQn7CbKPdg-8" value="I" style="text;html=1;strokeColor=none;fillColor=none;align=center;verticalAlign=middle;whiteSpace=wrap;rounded=0;" vertex="1" parent="1">
          <mxGeometry x="280" y="370" width="60" height="30" as="geometry" />
        </mxCell>
        <mxCell id="PvcutR2ZVSyQn7CbKPdg-9" value="H" style="text;html=1;strokeColor=none;fillColor=none;align=center;verticalAlign=middle;whiteSpace=wrap;rounded=0;" vertex="1" parent="1">
          <mxGeometry x="340" y="420" width="60" height="30" as="geometry" />
        </mxCell>
        <mxCell id="PvcutR2ZVSyQn7CbKPdg-23" style="edgeStyle=orthogonalEdgeStyle;rounded=0;orthogonalLoop=1;jettySize=auto;html=1;exitX=1;exitY=0.5;exitDx=0;exitDy=0;entryX=0;entryY=0.5;entryDx=0;entryDy=0;" edge="1" parent="1" source="PvcutR2ZVSyQn7CbKPdg-10" target="PvcutR2ZVSyQn7CbKPdg-12">
          <mxGeometry relative="1" as="geometry" />
        </mxCell>
        <mxCell id="PvcutR2ZVSyQn7CbKPdg-10" value="c = a % 2" style="rounded=0;whiteSpace=wrap;html=1;" vertex="1" parent="1">
          <mxGeometry x="294" y="520" width="120" height="60" as="geometry" />
        </mxCell>
        <mxCell id="PvcutR2ZVSyQn7CbKPdg-18" style="edgeStyle=orthogonalEdgeStyle;rounded=0;orthogonalLoop=1;jettySize=auto;html=1;exitX=0.5;exitY=1;exitDx=0;exitDy=0;entryX=0.5;entryY=0;entryDx=0;entryDy=0;" edge="1" parent="1" source="PvcutR2ZVSyQn7CbKPdg-11" target="PvcutR2ZVSyQn7CbKPdg-6">
          <mxGeometry relative="1" as="geometry" />
        </mxCell>
        <mxCell id="PvcutR2ZVSyQn7CbKPdg-11" value="c = 0&lt;br&gt;d = 0" style="rounded=0;whiteSpace=wrap;html=1;" vertex="1" parent="1">
          <mxGeometry x="290" y="190" width="120" height="60" as="geometry" />
        </mxCell>
        <mxCell id="PvcutR2ZVSyQn7CbKPdg-24" style="edgeStyle=orthogonalEdgeStyle;rounded=0;orthogonalLoop=1;jettySize=auto;html=1;exitX=1;exitY=0;exitDx=0;exitDy=0;entryX=0.5;entryY=1;entryDx=0;entryDy=0;" edge="1" parent="1" source="PvcutR2ZVSyQn7CbKPdg-12" target="PvcutR2ZVSyQn7CbKPdg-14">
          <mxGeometry relative="1" as="geometry" />
        </mxCell>
        <mxCell id="PvcutR2ZVSyQn7CbKPdg-12" value="a = a / 2&amp;nbsp;" style="rounded=0;whiteSpace=wrap;html=1;" vertex="1" parent="1">
          <mxGeometry x="480" y="520" width="120" height="60" as="geometry" />
        </mxCell>
        <mxCell id="PvcutR2ZVSyQn7CbKPdg-26" style="edgeStyle=orthogonalEdgeStyle;rounded=0;orthogonalLoop=1;jettySize=auto;html=1;exitX=0;exitY=0.5;exitDx=0;exitDy=0;entryX=1;entryY=0.5;entryDx=0;entryDy=0;" edge="1" parent="1" source="PvcutR2ZVSyQn7CbKPdg-14" target="PvcutR2ZVSyQn7CbKPdg-6">
          <mxGeometry relative="1" as="geometry" />
        </mxCell>
        <mxCell id="PvcutR2ZVSyQn7CbKPdg-14" value="d = c + d&amp;nbsp;" style="rounded=0;whiteSpace=wrap;html=1;" vertex="1" parent="1">
          <mxGeometry x="640" y="390" width="120" height="60" as="geometry" />
        </mxCell>
        <mxCell id="PvcutR2ZVSyQn7CbKPdg-17" style="edgeStyle=orthogonalEdgeStyle;rounded=0;orthogonalLoop=1;jettySize=auto;html=1;exitX=0;exitY=0.5;exitDx=0;exitDy=0;entryX=1;entryY=0.5;entryDx=0;entryDy=0;" edge="1" parent="1" source="PvcutR2ZVSyQn7CbKPdg-15" target="x3SwiINWwGX-mMM16VKN-16">
          <mxGeometry relative="1" as="geometry" />
        </mxCell>
        <mxCell id="PvcutR2ZVSyQn7CbKPdg-15" value="ki: d+1" style="rounded=0;whiteSpace=wrap;html=1;" vertex="1" parent="1">
          <mxGeometry x="160" y="370" width="120" height="60" as="geometry" />
        </mxCell>
        <mxCell id="PvcutR2ZVSyQn7CbKPdg-16" style="edgeStyle=orthogonalEdgeStyle;rounded=0;orthogonalLoop=1;jettySize=auto;html=1;exitX=0.5;exitY=1;exitDx=0;exitDy=0;entryX=0;entryY=1;entryDx=0;entryDy=0;" edge="1" parent="1" source="PvcutR2ZVSyQn7CbKPdg-8" target="PvcutR2ZVSyQn7CbKPdg-8">
          <mxGeometry relative="1" as="geometry" />
        </mxCell>
      </root>
    </mxGraphModel>
  </diagram>
</mxfile>
